<svg xmlns="http://www.w3.org/2000/svg"  viewBox="0 0 16 14.875">
  <g id="noun_comment_4378473" transform="translate(-90.84 -18.76)">
    <g id="Group_13" data-name="Group 13" transform="translate(89 16)">
      <path id="Path_19" data-name="Path 19" d="M13.269,8.474H6.411a.571.571,0,1,1,0-1.143h6.857a.571.571,0,1,1,0,1.143Zm.571,2.286a.571.571,0,0,0-.571-.571H6.411a.571.571,0,1,0,0,1.143h6.857a.571.571,0,0,0,.571-.571Zm4-1.311c0,3.688-3.589,6.689-8,6.689a9.379,9.379,0,0,1-2.34-.3c-.517.831-2.38,2.29-3.92,1.627a.575.575,0,0,1-.295-.857,7.955,7.955,0,0,0,1.138-2.24A6.228,6.228,0,0,1,1.84,9.449c0-3.688,3.589-6.689,8-6.689S17.84,5.761,17.84,9.449Zm-1.143,0C16.7,6.391,13.621,3.9,9.84,3.9S2.983,6.391,2.983,9.449a5.175,5.175,0,0,0,2.382,4.194.571.571,0,0,1,.241.414,4.531,4.531,0,0,1-.875,2.395,3.616,3.616,0,0,0,2.046-1.569.574.574,0,0,1,.654-.248,8.254,8.254,0,0,0,2.408.36C13.621,14.995,16.7,12.507,16.7,9.449Z" transform="translate(0)" fill="currentColor"/>
    </g>
  </g>
</svg>
