<svg xmlns="http://www.w3.org/2000/svg" viewBox="0 0 15.398 16">
  <g id="noun_Download_1256642" transform="translate(-17.5 -16.23)">
    <path id="Path_16" data-name="Path 16" d="M17.5,74.954a1.184,1.184,0,0,0,1.184,1.184H31.714a1.184,1.184,0,1,0,0-2.369H18.684A1.184,1.184,0,0,0,17.5,74.954Z" transform="translate(0 -43.909)" fill="#fff"/>
    <path id="Path_17" data-name="Path 17" d="M28.9,16.23a1.184,1.184,0,0,0-1.184,1.184v7.052l-2.959-3.12a1.185,1.185,0,0,0-1.722,1.627l5.006,5.283a1.184,1.184,0,0,0,1.722,0l5-5.283a1.185,1.185,0,1,0-1.722-1.627l-2.956,3.12V17.414A1.184,1.184,0,0,0,28.9,16.23Z" transform="translate(-3.979)" fill="#fff"/>
  </g>
</svg>
