<svg xmlns="http://www.w3.org/2000/svg" viewBox="0 0 41.138 14.798">
  <g id="noun_Long_Arrow_2596838" data-name="noun_Long Arrow_2596838" transform="translate(-7.01 -31.226)">
    <path id="Path_29" data-name="Path 29" d="M40.41,6.63H2.5L7.89,1.243A.728.728,0,1,0,6.86.213L.309,6.764A.726.726,0,0,0,0,7.358s0,.007,0,.011,0,.015,0,.023a.723.723,0,0,0,.04.2A.7.7,0,0,0,.1,7.713a.731.731,0,0,0,.062.093.683.683,0,0,0,.056.084l6.695,6.695a.728.728,0,1,0,1.03-1.03L2.469,8.087H40.41a.728.728,0,0,0,0-1.456Z" transform="translate(48.148 46.024) rotate(180)" fill="#fff"/>
  </g>
</svg>
