<svg xmlns="http://www.w3.org/2000/svg" width="24" height="18.884" viewBox="0 0 24 18.884">
  <g data-name="noun_curve arrow_3137713" transform="translate(-1144 -682)">
    <g data-name="Group 9" transform="translate(530 -72)">
      <path data-name="Path 13" d="M614,771.963c0-6.311,1.006-9.951,3.11-12.055,1.976-1.994,4.774-2.543,8.506-2.616,0-1.537-.329-3.293.933-3.293.659,0,5.671,3.274,5.726,3.165l5.268,3.037a.928.928,0,0,1-.018,1.61l-10.518,6.073a.924.924,0,0,1-1.39-.8h0v-2.323c-4.848.384-7.665,3.823-9.878,7.665a.933.933,0,0,1-1.738-.457Z" fill="currentColor"/>
    </g>
  </g>
</svg>
