<svg xmlns="http://www.w3.org/2000/svg" width="16" height="15.998" viewBox="0 0 16 15.998">
  <g transform="translate(-99.6 -99.6)">
    <path data-name="Path 14" d="M115.6,107.6a1.819,1.819,0,0,1-1.814,1.814h-4.373v4.371A1.819,1.819,0,0,1,107.6,115.6h0a1.819,1.819,0,0,1-1.814-1.814v-4.371h-4.371A1.819,1.819,0,0,1,99.6,107.6h0a1.819,1.819,0,0,1,1.814-1.814h4.371v-4.371A1.819,1.819,0,0,1,107.6,99.6h0a1.819,1.819,0,0,1,1.814,1.814v4.371h4.371A1.819,1.819,0,0,1,115.6,107.6Z" fill="currentColor"/>
  </g>
</svg>
